# WaveFront *.obj file (generated by CINEMA 4D)

mtllib ./skflyingkeyMesh.mtl

v 4.85413026809692 0.12120901048183 -9.40478229522705
v -2.59007191658020 0.12120918929577 -9.40478610992432
v -2.35520100593567 0.18907669186592 -3.10660099983215
v 2.49045467376709 -0.09837912768126 13.76373577117920
v -0.22640803456306 -0.09837929159403 13.76373767852783
v -2.59007883071899 -0.15663678944111 9.40478515625000
v 4.85412359237671 -0.15663585066795 9.40478706359863
v -0.22640803456306 0.06295206397772 13.76373767852783
v -2.59007906913757 0.12120915204287 9.40478515625000
v 2.49045419692993 0.06295213103294 13.76373577117920
v 4.85412311553955 0.12120885401964 9.40478706359863
v 2.49046134948730 0.06295191496611 -13.76373672485352
v -0.22640112042427 0.06295184791088 -13.76373767852783
v -0.22640100121498 -0.09837944060564 -13.76373767852783
v -2.59007191658020 -0.15663622319698 -9.40478610992432
v 2.49046134948730 -0.09837949275970 -13.76373672485352
v 4.85413026809692 -0.15663622319698 -9.40478229522705
v -2.35520362854004 -0.22450320422649 3.10660076141357
v 4.61925458908081 -0.22450362145901 3.10660147666931
v -2.35520362854004 0.18907657265663 3.10660076141357
v 4.61925411224365 0.18907661736012 3.10660243034363
v -2.35520124435425 -0.22450281679630 -3.10660099983215
v 6.48202800750732 -4.08749961853027 0.41845872998238
v 6.48202800750732 -0.40772682428360 -0.41845613718033
v 6.48202800750732 -4.08749961853027 -0.41845679283142
v 6.48202800750732 -0.40772700309753 0.41845870018005
v 10.64114475250244 -0.40772670507431 -0.41845533251762
v 10.64114475250244 -4.08749961853027 -0.41845679283142
v 10.64114570617676 -0.40772694349289 0.41845953464508
v 10.64114570617676 -4.08749961853027 0.41846090555191
v 2.26405167579651 0.37229993939400 0.41845801472664
v -0.00000006318535 0.37229982018471 0.41845756769180
v 2.26405167579651 0.37230005860329 -0.41845688223839
v 2.26405167579651 -0.40772694349289 -0.41845694184303
v 4.61925458908081 -0.22450378537178 -3.10659956932068
v 4.61925506591797 0.18907661736012 -3.10659861564636
v -0.00000006318534 -0.40772712230682 0.41845750808716
v 0.00000006318530 0.37229976058006 -0.41845747828484
v 2.26405191421509 -0.40772712230682 0.41845792531967
v 0.00000006318529 -0.40772703289986 -0.41845744848251
v 11.85746097564697 0.37230029702187 -0.41845491528511
v 11.85746097564697 -0.40772682428360 0.41845986247063
v 11.85746097564697 -0.40772664546967 -0.41845506429672
v 11.85746097564697 0.37230026721954 0.41845998167992
v 0.00297039304860 1.59246873855591 0.42361196875572
v -5.51350259780884 -1.59246861934662 0.42361116409302
v -5.51350259780884 -1.59246885776520 -0.42361271381378
v -2.75526618957520 -3.18493747711182 -0.42361342906952
v -2.75526595115662 -3.18493723869324 0.42361143231392
v -2.75526595115662 3.18493723869324 0.42361161112785
v -2.75526618957520 3.18493700027466 -0.42361235618591
v -5.51350259780884 1.59246873855591 -0.42361259460449
v 0.00297123636119 -1.59246838092804 -0.42361214756966
v 0.00297110830434 -1.59246885776520 0.42361122369766
v -5.51350259780884 1.59246850013733 0.42361122369766
v 0.00297052110545 1.59246873855591 -0.42361170053482
v -0.81612312793732 -1.11956405639648 -0.00000004086845
v -0.81612360477448 1.11956453323364 -0.00000013545622
v -2.75526618957520 -2.23912882804871 -0.00000008173691
v -2.75526618957520 2.23912882804871 -0.00000027091241
v -4.69440841674805 -1.11956429481506 -0.00000063718448
v -4.69440841674805 1.11956441402435 -0.00000073177227
# 62 vertices

vn 0.00000002590835 0.99955403804779 -0.02986160665751
vn 0.00000001313784 0.99992185831070 -0.01250089332461
vn 0.00000002437077 0.99993228912354 -0.01163799595088
vn 0.00000000000000 0.00000000000000 0.00000000000000
vn 0.00000010476948 -0.99992185831070 0.01250082626939
vn 0.00000006793994 -0.99991071224213 0.01336379256099
vn 0.00000009549986 -0.99991071224213 0.01336376182735
vn 0.00000006177019 -0.99993228912354 0.01163794379681
vn -0.94899773597717 -0.00000051937275 0.31528288125992
vn -0.87907469272614 0.00000000000000 0.47668409347534
vn -0.87907469272614 -0.00000034610642 0.47668409347534
vn -0.99037599563599 -0.00000051937275 0.13840307295322
vn 0.00000001971251 0.99992185831070 0.01250084303319
vn -0.00000001509779 0.99991071224213 0.01336365286261
vn 0.00000001081822 0.99991071224213 0.01336368359625
vn 0.00000002157915 0.99993228912354 0.01163798943162
vn 0.94899761676788 0.00000188274259 0.31528317928314
vn 0.87907469272614 0.00000238427060 0.47668409347534
vn 0.87907469272614 0.00000188435195 0.47668409347534
vn 0.99037587642670 0.00000148714423 0.13840372860432
vn -0.00000002013036 0.99991071224213 -0.01336380559951
vn 0.00000000508769 0.99991071224213 -0.01336377579719
vn -0.94899761676788 0.00000000000000 -0.31528314948082
vn -0.87907463312149 0.00000000000000 -0.47668415307999
vn -0.99037593603134 0.00000020461337 -0.13840359449387
vn -0.00000000098293 -0.99992185831070 -0.01250081229955
vn -0.00000001509777 -0.99991071224213 -0.01336363796145
vn -0.00000000433464 -0.99991071224213 -0.01336365006864
vn -0.00000004185683 -0.99993228912354 -0.01163791585714
vn 0.94899785518646 0.00000000000000 -0.31528252363205
vn 0.87907493114471 0.00000000000000 -0.47668358683586
vn 0.87907493114471 0.00000000000000 -0.47668361663818
vn 0.99037599563599 -0.00000042496546 -0.13840289413929
vn -0.00000000145315 -0.99955403804779 0.02986163832247
vn -0.00000004745822 -0.99880152940750 0.04894432052970
vn -0.96623587608337 -0.00000028694623 -0.25765919685364
vn -0.87941962480545 0.00000000000000 -0.47604739665985
vn 0.00000000140531 0.99955403804779 0.02986163273454
vn -0.00000003227762 0.99880152940750 0.04894419386983
vn 0.96623605489731 0.00000182476003 -0.25765848159790
vn -0.96623605489731 0.00000043547024 0.25765854120255
vn -0.87941998243332 0.00000043547030 0.47604680061340
vn -1.00000000000000 0.00000000000000 0.00000000000000
vn 0.00000009673481 0.00000028751299 -1.00000000000000
vn 0.00000020248608 0.00000027369856 -1.00000000000000
vn 0.00000015654817 0.00000020763734 -1.00000000000000
vn 0.00000000000000 0.00000017817705 -1.00000000000000
vn -0.00000036185975 0.00000019032551 1.00000000000000
vn -0.00000019499150 -0.00000010423159 1.00000000000000
vn -0.00000027978197 -0.00000004634802 1.00000000000000
vn -0.00000052308440 0.00000037255205 1.00000000000000
vn 1.00000000000000 0.00000000000001 -0.00000113950978
vn 1.00000000000000 -0.00000000000042 -0.00000113951171
vn 1.00000000000000 0.00000000000045 -0.00000113950784
vn -0.00000006351090 0.99768519401550 0.06800194084644
vn -0.00000004364983 0.99768519401550 0.06800197809935
vn 0.87941956520081 -0.00000134711593 0.47604754567146
vn 0.75214976072311 -0.00000034209162 0.65899223089218
vn 0.75214958190918 -0.00000130014018 0.65899240970612
vn -0.00000006978109 -0.99880152940750 -0.04894432052970
vn -0.00000008579343 -0.99955403804779 -0.02986160106957
vn 0.96623581647873 -0.00000122695235 0.25765931606293
vn -0.00000004063245 -0.99768519401550 0.06800214201212
vn -0.00000003873762 0.99768519401550 -0.06800207495689
vn -0.00000002131005 0.99880152940750 -0.04894426837564
vn 0.87941986322403 0.00000128703437 -0.47604694962502
vn -0.00000001465636 -0.99768519401550 0.06800209730864
vn -0.75214970111847 0.00000000000000 -0.65899229049683
vn 0.75214987993240 0.00000121461744 -0.65899205207825
vn 0.00000005373998 -0.99768513441086 -0.06800239533186
vn -0.00000003577379 -0.99768519401550 -0.06800223886967
vn 0.75214999914169 0.00000017104576 -0.65899193286896
vn -0.75215011835098 0.00000032259908 0.65899181365967
vn -0.00000011236547 0.99768519401550 -0.06800220161676
vn -0.75215005874634 0.00000000000000 0.65899181365967
vn 1.00000000000000 0.00000000000000 0.00000000000000
vn 0.99999701976776 -0.00243445648812 0.00000015092864
vn 0.99999701976776 -0.00243445648812 0.00000015070893
vn -0.50000000000000 -0.86602538824081 0.00000028056445
vn -0.50000000000000 -0.86602538824081 0.00000017671404
vn -0.49999997019768 -0.86602538824081 0.00000038441488
vn -0.50000000000000 0.86602538824081 0.00000012185478
vn -0.49999997019768 0.86602538824081 0.00000000000000
vn 0.49999988079071 -0.86602544784546 -0.00000041184501
vn 0.49999994039536 -0.86602544784546 -0.00000011756562
vn 0.50000000000000 0.86602538824081 -0.00000038441530
vn 0.49999994039536 0.86602544784546 -0.00000019220765
vn 0.49999997019768 -0.86602538824081 0.00000017671377
vn -0.50000005960464 0.86602538824081 0.00000024370956
vn -1.00000000000000 0.00000000000000 0.00000000000000
vn 0.49999991059303 0.86602544784546 0.00000000000000
vn 0.99999701976776 -0.00243445648812 0.00000015114836
vn 0.99999684095383 0.00250785774551 0.00000015194719
vn 0.99999684095383 0.00250785844401 0.00000015263116
vn 0.99999684095383 0.00250785704702 0.00000015126322
vn -0.45719653367996 0.00135884655174 0.88936465978622
vn -0.31316938996315 0.27250692248344 0.90976089239120
vn -0.40816864371300 0.10216001421213 0.90717238187790
vn -0.45689624547958 -0.00087985966820 0.88951957225800
vn -0.45721438527107 -0.00131967861671 -0.88935554027557
vn -0.40817883610725 -0.10214049369097 -0.90716999769211
vn -0.45688396692276 0.00090610940242 -0.88952583074570
vn -0.35277953743935 0.20502151548862 -0.91296923160553
vn 0.07842317223549 0.40749937295914 -0.90983188152313
vn -0.07842317223549 0.40749958157539 -0.90983182191849
vn -0.07842323929071 -0.40749877691269 0.90983211994171
vn -0.35325273871422 -0.20566307008266 0.91264188289642
vn -0.35279062390327 -0.20500196516514 0.91296929121017
vn 0.07842312008142 -0.40749880671501 0.90983217954636
vn -0.07842295616865 -0.40749883651733 -0.90983217954636
vn -0.31318473815918 -0.27248302102089 -0.90976279973984
vn -0.35323026776314 0.20570173859596 -0.91264188289642
vn 0.07842313498259 0.40749853849411 0.90983229875565
vn -0.07842301577330 0.40749824047089 0.90983241796494
vn 0.39211574196815 0.13583290576935 0.90983223915100
vn 0.31369245052338 0.27166572213173 0.90983229875565
vn 0.31369289755821 0.27166607975960 -0.90983200073242
vn 0.31369259953499 -0.27166593074799 0.90983217954636
vn 0.39211580157280 -0.13583299517632 0.90983217954636
vn 0.39211592078209 0.13583283126354 -0.90983211994171
vn 0.31369274854660 -0.27166584134102 -0.90983211994171
vn 0.39211586117744 -0.13583287596703 -0.90983217954636
vn 0.07842331379652 -0.40749880671501 -0.90983211994171
vn 0.00000020634012 0.00000019259373 -1.00000000000000
vn 0.00000007350645 -1.00000000000000 -0.00000024926823
vn 0.00000004900430 -1.00000000000000 -0.00000028487798
vn 0.00000009800861 -1.00000000000000 -0.00000021365845
vn -0.00000026952350 -0.00000015282711 1.00000000000000
vn -0.00000023727762 -0.00000020310888 1.00000000000000
vn 0.00000022051904 0.00000019103393 -1.00000000000000
vn 0.00000000000000 -1.00000000000000 0.00000000000000
vn -0.00000019645705 -0.00000019139479 1.00000000000000
vn -0.00000002951216 1.00000000000000 0.00000008902435
vn -0.00000007281927 1.00000000000000 0.00000007121949
vn -0.00000006355236 1.00000000000000 0.00000010682922
vn -0.00000002485234 1.00000000000000 0.00000003560974
vn 0.00000019790077 0.00000011497400 -1.00000000000000
vn 0.00000035102045 0.00000000000000 -1.00000000000000
vn 0.00000002826224 -1.00000000000000 -0.00000021365847
vn 0.00000002258404 -1.00000000000000 -0.00000017804871
vn 0.00000001884151 -1.00000000000000 -0.00000021365847
vn -0.00000018370430 -0.00000011462043 1.00000000000000
vn 0.00000019076984 0.00000007641355 -1.00000000000000
vn 0.00000003948983 -1.00000000000000 -0.00000010682922
vn 0.00000001974493 -1.00000000000000 -0.00000016024383
vn 0.00000070204089 0.00000000000104 1.00000000000000
vn 0.00000070204084 0.00000000000000 1.00000000000000
vn 0.00000070204101 0.00000000000207 1.00000000000000
vn -0.00000005265306 1.00000000000000 -0.00000007121947
vn -0.00000009214290 1.00000000000000 0.00000003560974
vn 0.00000035102047 0.00000000000000 -1.00000000000000
# 151 normals

vt 0.89803922176361 0.26666665077209 0.00000000000000
vt 0.90980392694473 0.54509806632996 0.00000000000000
vt 0.58039218187332 0.54509806632996 0.00000000000000
vt 0.00000000000000 1.00000000000000 0.00000000000000
vt 0.90980392694473 0.54117649793625 0.00000000000000
vt 0.80392158031464 0.72941178083420 0.00000000000000
vt 0.68627452850342 0.72941178083420 0.00000000000000
vt 0.58039218187332 0.54117649793625 0.00000000000000
vt 0.95686274766922 0.56078433990479 0.00000000000000
vt 0.82352942228317 0.78431373834610 0.00000000000000
vt 0.57647061347961 0.53725492954254 0.00000000000000
vt 0.66666668653488 0.78431373834610 0.00000000000000
vt 0.53725492954254 0.54509806632996 0.00000000000000
vt 0.96078431606293 0.56078433990479 0.00000000000000
vt 0.58039218187332 0.53725492954254 0.00000000000000
vt 0.53725492954254 0.54901963472366 0.00000000000000
vt 0.89803922176361 0.27058827877045 0.00000000000000
vt 0.59215688705444 0.27058827877045 0.00000000000000
vt 0.94117647409439 0.23921573162079 0.00000000000000
vt 0.37647059559822 0.40784311294556 0.00000000000000
vt 0.25098040699959 0.40784311294556 0.00000000000000
vt 0.37647059559822 0.49019610881805 0.00000000000000
vt 0.25098040699959 0.49019610881805 0.00000000000000
vt 0.37647059559822 0.14901959896088 0.00000000000000
vt 0.22352941334248 0.14901959896088 0.00000000000000
vt 0.22352941334248 0.37254905700684 0.00000000000000
vt 0.37647059559822 0.37254905700684 0.00000000000000
vt 0.37647059559822 0.12549018859863 0.00000000000000
vt 0.25098040699959 0.12549018859863 0.00000000000000
vt 0.25098040699959 0.05882358551025 0.00000000000000
vt 0.37647059559822 0.05882358551025 0.00000000000000
vt 0.79607844352722 0.15294122695923 0.00000000000000
vt 0.69411766529083 0.15294122695923 0.00000000000000
vt 0.55294120311737 0.23529410362244 0.00000000000000
vt 0.66666668653488 0.10588240623474 0.00000000000000
vt 0.59215688705444 0.26666665077209 0.00000000000000
vt 0.55294120311737 0.23921573162079 0.00000000000000
vt 0.84313726425171 0.10196077823639 0.00000000000000
vt 0.83921569585800 0.09803926944733 0.00000000000000
vt 0.15686275064945 0.02352941036224 0.00000000000000
vt 0.21960784494877 0.02352941036224 0.00000000000000
vt 0.15686275064945 0.06666672229767 0.00000000000000
vt 0.21960784494877 0.06666672229767 0.00000000000000
vt 0.01960784383118 0.63921570777893 0.00000000000000
vt 0.06666667014360 0.57254904508591 0.00000000000000
vt 0.01960784383118 0.57254904508591 0.00000000000000
vt 0.40784314274788 0.78823530673981 0.00000000000000
vt 0.40784314274788 0.92941176891327 0.00000000000000
vt 0.47450980544090 0.92941176891327 0.00000000000000
vt 0.47450980544090 0.78823530673981 0.00000000000000
vt 0.06666667014360 0.90588235855103 0.00000000000000
vt 0.06666667014360 0.76470589637756 0.00000000000000
vt 0.01960784383118 0.76470589637756 0.00000000000000
vt 0.47450980544090 0.63137257099152 0.00000000000000
vt 0.40784314274788 0.63137257099152 0.00000000000000
vt 0.01960784383118 0.90588235855103 0.00000000000000
vt 0.27058824896812 0.94509804248810 0.00000000000000
vt 0.14901961386204 0.94509804248810 0.00000000000000
vt 0.14901961386204 0.99215686321259 0.00000000000000
vt 0.27058824896812 0.99215686321259 0.00000000000000
vt 0.06666667014360 0.63921570777893 0.00000000000000
vt 0.40784314274788 0.56470590829849 0.00000000000000
vt 0.47450980544090 0.56470590829849 0.00000000000000
vt 0.22352941334248 0.58823531866074 0.00000000000000
vt 0.26666668057442 0.58823531866074 0.00000000000000
vt 0.25098040699959 0.67843139171600 0.00000000000000
vt 0.19607843458652 0.58823531866074 0.00000000000000
vt 0.16862745583057 0.67843139171600 0.00000000000000
vt 0.29019609093666 0.76862746477127 0.00000000000000
vt 0.35294118523598 0.76862746477127 0.00000000000000
vt 0.07450980693102 0.76862746477127 0.00000000000000
vt 0.15294118225574 0.58823531866074 0.00000000000000
vt 0.12941177189350 0.76862746477127 0.00000000000000
vt 0.26666668057442 0.92549020051956 0.00000000000000
vt 0.25098040699959 0.85490196943283 0.00000000000000
vt 0.15294118225574 0.92549020051956 0.00000000000000
vt 0.16862745583057 0.85490196943283 0.00000000000000
vt 0.22352941334248 0.15294122695923 0.00000000000000
vt 0.15294118225574 0.09803926944733 0.00000000000000
vt 0.22352941334248 0.36862742900848 0.00000000000000
vt 0.40784314274788 0.06666672229767 0.00000000000000
vt 0.40784314274788 0.13725495338440 0.00000000000000
vt 0.47450980544090 0.13725495338440 0.00000000000000
vt 0.47450980544090 0.06666672229767 0.00000000000000
vt 0.22352941334248 0.09803926944733 0.00000000000000
vt 0.40784314274788 0.32156860828400 0.00000000000000
vt 0.40784314274788 0.18039214611053 0.00000000000000
vt 0.47450980544090 0.18039214611053 0.00000000000000
vt 0.47450980544090 0.32156860828400 0.00000000000000
vt 0.15294118225574 0.53725492954254 0.00000000000000
vt 0.01960784383118 0.04705882072449 0.00000000000000
vt 0.01960784383118 0.50196081399918 0.00000000000000
vt 0.06666667014360 0.50196081399918 0.00000000000000
vt 0.06666667014360 0.04705882072449 0.00000000000000
vt 0.41176471114159 0.36078429222107 0.00000000000000
vt 0.41176471114159 0.48627448081970 0.00000000000000
vt 0.47843137383461 0.48627448081970 0.00000000000000
vt 0.47843137383461 0.36078429222107 0.00000000000000
vt 0.22352941334248 0.53725492954254 0.00000000000000
vt 0.41176471114159 0.56862747669220 0.00000000000000
vt 0.47843137383461 0.56862747669220 0.00000000000000
# 101 texture coordinates

o material_0
usemtl material_0
f 1/3/3 2/2/2 3/1/1
f 4/7/7 5/6/6 6/5/5
f 6/5/5 7/8/8 4/7/7
f 5/6/11 8/10/10 9/9/9
f 9/9/9 6/5/12 5/6/11
f 8/6/15 10/7/14 11/8/13
f 11/8/13 9/5/16 8/6/15
f 10/12/19 4/7/18 7/11/17
f 7/11/17 11/13/20 10/12/19
f 12/7/22 13/6/21 2/2/2
f 2/2/2 1/3/3 12/7/22
f 13/6/24 14/10/24 15/14/23
f 15/14/23 2/5/25 13/6/24
f 14/6/28 16/7/27 17/3/26
f 17/3/26 15/2/29 14/6/28
f 16/12/32 12/7/31 1/15/30
f 1/15/30 17/16/33 16/12/32
f 7/8/8 6/5/5 18/17/34
f 18/17/34 19/18/35 7/8/8
f 6/5/12 9/9/9 20/19/36
f 20/19/36 18/17/37 6/5/12
f 9/5/16 11/8/13 21/18/38
f 21/18/38 20/17/39 9/5/16
f 11/13/20 7/11/17 19/18/40
f 2/5/25 15/14/23 22/19/41
f 22/19/41 3/17/42 2/5/25
f 23/22/43 24/21/43 25/20/43
f 24/21/43 23/22/43 26/23/43
f 24/26/46 27/25/45 28/24/44
f 28/24/44 25/27/47 24/26/46
f 29/25/50 26/26/49 23/27/48
f 23/27/48 30/24/51 29/25/50
f 27/30/52 29/29/53 30/28/52
f 30/28/52 28/31/54 27/30/52
f 31/33/56 32/32/55 20/17/39
f 33/33/59 34/35/58 35/34/57
f 35/36/61 22/1/60 15/2/29
f 17/16/33 1/15/30 36/36/62
f 36/36/62 35/34/57 17/16/33
f 19/18/35 18/17/34 37/32/63
f 36/36/65 3/1/1 38/32/64
f 19/18/40 21/37/66 11/13/20
f 37/32/63 39/33/67 19/18/35
f 18/17/37 20/19/36 32/38/68
f 32/38/68 37/32/68 18/17/37
f 21/37/66 19/18/40 39/33/69
f 34/33/71 40/32/70 22/1/60
f 35/34/57 36/36/62 33/33/59
f 39/33/69 31/35/72 21/37/66
f 3/1/1 36/36/65 1/3/3
f 20/17/39 21/18/38 31/33/56
f 3/17/42 22/19/41 40/39/73
f 15/2/29 17/3/26 35/36/61
f 22/1/60 35/36/61 34/33/71
f 38/32/64 33/33/74 36/36/65
f 40/39/73 38/32/75 3/17/42
f 41/42/76 42/41/76 43/40/76
f 41/42/76 44/43/76 42/41/76
f 32/46/78 38/45/77 45/44/77
f 46/49/79 47/48/80 48/47/79
f 46/49/79 48/47/79 49/50/81
f 50/53/82 51/52/83 52/51/82
f 49/50/85 53/55/85 54/54/84
f 45/44/87 51/52/87 50/53/86
f 49/50/85 48/47/88 53/55/85
f 50/53/82 52/51/82 55/56/89
f 55/59/43 52/58/43 47/57/43
f 55/59/43 47/57/43 46/60/90
f 45/44/87 56/61/91 51/52/87
f 45/44/77 38/45/77 56/61/92
f 54/54/93 53/55/94 40/62/93
f 54/54/93 40/62/93 37/63/95
f 57/66/98 54/65/97 37/64/96
f 57/66/98 37/64/96 32/67/99
f 40/64/102 58/68/101 38/67/100
f 48/70/105 59/69/104 57/66/103
f 58/68/108 45/72/107 50/71/106
f 58/68/108 50/71/106 60/73/109
f 56/72/111 58/68/101 60/73/110
f 53/65/112 57/66/103 40/64/102
f 59/69/114 49/70/113 54/65/97
f 59/69/114 54/65/97 57/66/98
f 38/67/100 58/68/101 56/72/111
f 48/70/105 57/66/103 53/65/112
f 61/75/116 46/74/115 49/70/113
f 61/75/116 49/70/113 59/69/114
f 47/74/117 59/69/104 48/70/105
f 62/77/119 55/76/118 46/74/115
f 62/77/119 46/74/115 61/75/116
f 52/76/122 62/77/121 61/75/120
f 52/76/122 61/75/120 47/74/117
f 60/73/109 50/71/106 55/76/118
f 60/73/109 55/76/118 62/77/119
f 51/71/123 60/73/110 62/77/121
f 51/71/123 62/77/121 52/76/122
f 56/72/111 60/73/110 51/71/123
f 40/64/102 57/66/103 58/68/101
f 57/66/98 32/67/99 58/68/108
f 47/74/117 61/75/120 59/69/104
f 58/68/108 32/67/99 45/72/107
f 24/80/46 41/79/124 27/78/45
f 29/83/125 27/82/126 43/81/125
f 29/83/125 43/81/125 42/84/127
f 44/79/129 29/78/50 42/85/128
f 27/78/45 41/79/124 43/85/130
f 23/88/131 25/87/131 28/86/131
f 23/88/131 28/86/131 30/89/131
f 31/90/132 26/80/49 29/78/50
f 31/90/132 29/78/50 44/79/129
f 33/93/135 31/92/134 44/91/133
f 33/93/135 44/91/133 41/94/136
f 24/80/46 33/90/137 41/79/124
f 14/10/138 12/7/138 16/12/138
f 39/97/141 34/96/140 24/95/139
f 39/97/141 24/95/139 26/98/139
f 31/90/132 39/99/142 26/80/49
f 34/99/143 33/90/137 24/80/46
f 37/101/145 40/100/144 34/96/140
f 37/101/145 34/96/140 39/97/141
f 8/10/146 5/6/147 4/7/146
f 8/10/146 4/7/146 10/12/148
f 38/45/150 32/46/149 31/92/134
f 38/45/150 31/92/134 33/93/135
f 14/10/138 13/6/151 12/7/138

